#!OML:ASF I:\golf\golf\golf 2\Subject 1\2002-09-07\Subject1.ASF
:FULLY-SPECIFIED
:DEGREES
136
root -2.15289 18.09 -7.3217 13.6186 22.2322 -5.41736
lowerback 8.43435 2.40916 -2.38099
upperback 6.81278 3.08019 4.56417
thorax 1.9892 1.3897 5.88842
lowerneck -17.0181 -1.3726 -0.860535
upperneck 36.8328 2.02874 -8.51883
head 16.129 -0.329263 -3.14831
rclavicle -7.95139e-016 -1.98785e-014
rhumerus -9.71139 -1.66563 -79.391
rradius 31.382
rwrist -15.3379
rhand -29.5667 18.2431
rfingers 7.12502
rthumb -2.89901 -11.7169
lclavicle -7.95139e-016 -1.98785e-014
lhumerus -22.5064 1.77548 82.4577
lradius 35.3569
lwrist 9.73991
lhand -11.3315 34.5102
lfingers 7.12502
lthumb 14.7011 63.969
rfemur -39.3882 -2.37451 21.4521
rtibia 33.4546
rfoot 0.447884 -5.11359
rtoes -33.0748
lfemur -21.3109 0.390696 -15.6445
ltibia 26.164
lfoot -16.416 -8.01085
ltoes 1.96156
137
root -2.16029 18.0919 -7.3023 13.9157 22.6212 -5.43261
lowerback 8.72673 2.37373 -2.18751
upperback 7.01069 3.04235 4.57933
thorax 2.04919 1.3734 5.79213
lowerneck -17.2453 -1.43491 -1.01972
upperneck 36.63 1.89106 -8.29588
head 16.0673 -0.381138 -3.03888
rclavicle -3.73715e-014 3.97569e-015
rhumerus -8.88974 -1.2841 -79.4111
rradius 31.5154
rwrist -15.3322
rhand -29.7473 18.3363
rfingers 7.12502
rthumb -3.07341 -11.6213
lclavicle -3.73715e-014 3.97569e-015
lhumerus -22.3386 1.4421 82.4588
lradius 35.7066
lwrist 10.0582
lhand -11.3823 34.4476
lfingers 7.12502
lthumb 14.6522 63.91
rfemur -39.7631 -2.25856 21.4612
rtibia 32.1592
rfoot 0.702113 -4.82261
rtoes -30.519
lfemur -21.6305 0.343323 -15.536
ltibia 26.0643
lfoot -16.3428 -8.24924
ltoes 2.33052
138
root -2.17176 18.0924 -7.28139 14.3033 23.0572 -5.34851
lowerback 9.05757 2.37547 -2.17342
upperback 7.10942 3.04499 4.60489
thorax 1.97101 1.37562 5.80103
lowerneck -17.2973 -1.57271 -1.09917
upperneck 36.4315 1.62519 -8.11668
head 15.9581 -0.476436 -2.983
rclavicle 6.0033e-014 1.11319e-014
rhumerus -8.22873 -1.09016 -79.4009
rradius 31.6649
rwrist -15.2207
rhand -30.0332 18.3532
rfingers 7.12502
rthumb -3.34952 -11.6002
lclavicle 6.0033e-014 1.11319e-014
lhumerus -22.3522 1.05115 82.4905
lradius 36.1451
lwrist 10.2595
lhand -11.3105 34.5646
lfingers 7.12502
lthumb 14.7213 64.0219
rfemur -40.1617 -2.09864 21.3615
rtibia 30.8634
rfoot 1.07433 -3.70699
rtoes -33.4612
lfemur -22.0191 0.354073 -15.5121
ltibia 25.9625
lfoot -16.2752 -8.60938
ltoes 2.45392
139
root -2.18541 18.0966 -7.25896 14.6507 23.6036 -5.27603
lowerback 9.44525 2.37221 -2.20965
upperback 7.18087 3.03906 4.71978
thorax 1.82826 1.37219 5.93123
lowerneck -17.252 -1.72775 -1.18557
upperneck 36.2442 1.36428 -8.00882
head 15.8348 -0.577821 -2.9549
rclavicle -1.98785e-015 -1.59028e-015
rhumerus -7.6927 -0.976725 -79.2547
rradius 31.9001
rwrist -15.1479
rhand -30.1724 18.4007
rfingers 7.12502
rthumb -3.48398 -11.5506
lclavicle -1.98785e-015 -1.59028e-015
lhumerus -22.3308 0.926861 82.6303
lradius 36.4094
lwrist 10.1899
lhand -11.1268 34.5664
lfingers 7.12502
lthumb 14.8984 64.0107
rfemur -40.5224 -1.91805 21.224
rtibia 29.5574
rfoot 1.31356 -3.42831
rtoes -33.3568
lfemur -22.3487 0.368017 -15.4562
ltibia 25.782
lfoot -16.1364 -9.10876
ltoes 2.2847
140
root -2.19792 18.1005 -7.2363 15.0285 24.1729 -5.20224
lowerback 9.67142 2.31524 -2.31074
upperback 7.34131 2.95747 4.94069
thorax 1.8704 1.32102 6.22874
lowerneck -17.2575 -1.82741 -1.43093
upperneck 35.9497 1.26205 -7.97214
head 15.6858 -0.645127 -2.89701
rclavicle -2.42517e-014 3.49861e-014
rhumerus -7.0044 -0.52542 -78.9434
rradius 32.1498
rwrist -15.1891
rhand -30.2162 18.5394
rfingers 7.12502
rthumb -3.52625 -11.4112
lclavicle -2.42517e-014 3.49861e-014
lhumerus -22.1895 1.05856 82.934
lradius 36.6459
lwrist 10.054
lhand -11.1751 34.6519
lfingers 7.12502
lthumb 14.8518 64.0996
rfemur -40.9135 -1.82748 21.0929
rtibia 28.2142
rfoot 1.58824 -2.83013
rtoes -34.0024
lfemur -22.6789 0.22714 -15.376
ltibia 25.523
lfoot -15.9167 -9.57452
ltoes 2.46639
141
root -2.20889 18.1114 -7.21615 15.5776 24.708 -5.02253
lowerback 9.71535 2.31054 -2.53179
upperback 7.53957 2.93637 5.17989
thorax 2.04024 1.29109 6.61896
lowerneck -17.2996 -1.97656 -1.66528
upperneck 35.5606 1.10939 -8.02388
head 15.4999 -0.742657 -2.88414
rclavicle 2.54444e-014 -9.54166e-015
rhumerus -6.18419 0.0627044 -78.4769
rradius 32.3514
rwrist -15.4072
rhand -30.5571 18.8555
rfingers 7.12502
rthumb -3.85546 -11.0894
lclavicle 2.54444e-014 -9.54166e-015
lhumerus -21.9991 0.866578 83.3838
lradius 37.056
lwrist 10.1469
lhand -11.3688 34.8823
lfingers 7.12502
lthumb 14.6652 64.3437
rfemur -41.446 -1.73411 20.8092
rtibia 26.8184
rfoot 1.86279 -2.11581
rtoes -34.2005
lfemur -23.1749 0.0382575 -15.4107
ltibia 25.306
lfoot -15.7495 -9.89828
ltoes 2.62017
142
root -2.21618 18.1243 -7.20325 16.1753 25.0451 -4.9573
lowerback 10.051 2.40984 -2.17801
upperback 7.47365 3.09319 5.03895
thorax 1.78741 1.39304 6.2345
lowerneck -17.082 -2.15047 -1.36901
upperneck 35.2469 0.703333 -8.00141
head 15.2668 -0.861104 -2.97477
rclavicle 1.98785e-014 1.11319e-014
rhumerus -5.79542 -0.0421989 -78.5148
rradius 32.624
rwrist -15.5683
rhand -31.0126 19.1193
rfingers 7.12502
rthumb -4.29527 -10.8171
lclavicle 1.98785e-014 1.11319e-014
lhumerus -22.0678 -0.0600066 83.3468
lradius 37.4961
lwrist 10.499
lhand -11.347 34.9226
lfingers 7.12502
lthumb 14.6862 64.3824
rfemur -42.0774 -1.37509 20.4765
rtibia 25.3749
rfoot -2.16204 -5.82383
rtoes 4.02812
lfemur -23.8015 -0.0532134 -15.3987
ltibia 25.1691
lfoot -15.6644 -9.95603
ltoes 2.47549
143
root -2.22238 18.1209 -7.1912 16.6872 25.1623 -5.0596
lowerback 10.3089 2.52958 -1.74967
upperback 7.49947 3.28234 4.94042
thorax 1.67532 1.50698 5.856
lowerneck -16.8845 -2.27425 -1.20851
upperneck 34.8643 0.394118 -7.92085
head 15.0152 -0.951496 -2.99594
rclavicle 2.54444e-014 -4.85035e-014
rhumerus -5.2692 -0.117323 -78.538
rradius 32.8851
rwrist -15.6095
rhand -31.2257 19.2482
rfingers 7.12502
rthumb -4.50107 -10.6839
lclavicle 2.54444e-014 -4.85035e-014
lhumerus -22.0438 -0.734341 83.3279
lradius 37.874
lwrist 10.7752
lhand -11.364 34.8817
lfingers 7.12502
lthumb 14.6698 64.3428
rfemur -42.5956 -1.04795 20.4572
rtibia 23.897
rfoot -1.86476 -5.13416
rtoes 1.14695
lfemur -24.3828 -0.121464 -15.247
ltibia 25.0579
lfoot -15.5869 -9.83541
ltoes 2.20074
144
root -2.23237 18.112 -7.16507 17.0652 25.449 -5.04502
lowerback 10.6133 2.51838 -1.65467
upperback 7.67934 3.27526 5.03516
thorax 1.70084 1.5026 5.89736
lowerneck -16.9038 -2.32012 -1.43999
upperneck 34.4825 0.313981 -7.76387
head 14.8376 -0.991817 -2.88317
rclavicle -1.59028e-014 -1.74931e-014
rhumerus -4.479 0.23077 -78.347
rradius 33.0072
rwrist -15.6517
rhand -31.1592 19.5375
rfingers 7.12502
rthumb -4.43687 -10.396
lclavicle -1.59028e-014 -1.74931e-014
lhumerus -21.9647 -0.925435 83.5054
lradius 38.2695
lwrist 10.9532
lhand -11.593 34.9422
lfingers 7.12502
lthumb 14.4492 64.4192
rfemur -42.7944 -1.06579 20.5756
rtibia 22.4129
rfoot -1.50308 -4.41034
rtoes -3.85752
lfemur -24.7536 -0.218114 -15.1588
ltibia 24.9836
lfoot -15.6305 -9.88976
ltoes 1.7001
